<?xml version="1.0" standalone="no"?>
<!DOCTYPE svg PUBLIC "-//W3C//DTD SVG 20010904//EN"
 "http://www.w3.org/TR/2001/REC-SVG-20010904/DTD/svg10.dtd">
<svg version="1.0" xmlns="http://www.w3.org/2000/svg"
 width="400.000000pt" height="400.000000pt" viewBox="0 0 400.000000 400.000000"
 preserveAspectRatio="xMidYMid meet">
<metadata>
Created by potrace 1.14, written by Peter Selinger 2001-2017
</metadata>
<g transform="translate(0.000000,400.000000) scale(0.100000,-0.100000)"
fill="#000000" stroke="none">
<path d="M1820 3499 c-30 -4 -68 -12 -83 -18 -37 -14 -150 -90 -160 -107 -4
-8 -30 -39 -57 -71 -28 -31 -50 -65 -50 -75 0 -10 -6 -31 -14 -46 -18 -35 -15
-222 4 -272 1 -3 2 -8 1 -12 0 -5 4 -8 10 -8 5 0 8 -4 5 -9 -4 -5 -3 -11 1
-13 5 -1 17 -20 27 -41 21 -40 81 -106 137 -148 l34 -27 -35 -33 c-19 -19 -35
-36 -35 -39 -1 -3 -8 -25 -17 -50 -10 -25 -25 -72 -34 -106 -17 -61 -18 -61
-78 -88 -34 -14 -68 -26 -77 -26 -27 0 -133 -52 -147 -72 -7 -10 -24 -18 -36
-18 -15 0 -26 -7 -29 -20 -3 -11 -13 -20 -24 -20 -10 0 -26 -14 -35 -30 -12
-21 -25 -30 -42 -30 -14 0 -29 -7 -33 -15 -8 -14 -36 -23 -77 -24 -12 -1 -16
-6 -12 -16 4 -11 -2 -15 -23 -15 -35 0 -43 -8 -30 -31 9 -17 6 -19 -35 -19
-24 0 -51 -3 -60 -6 -19 -7 -21 -34 -3 -35 23 -1 49 -8 55 -13 8 -9 -29 -34
-62 -42 -16 -3 -45 -15 -65 -26 -19 -11 -43 -22 -53 -24 -10 -2 -27 -6 -37 -8
-11 -3 -40 -8 -66 -12 -40 -5 -45 -9 -33 -20 19 -19 105 -50 162 -58 43 -7 64
-25 31 -27 -18 -2 -17 -1 -87 -23 -38 -11 -55 -21 -52 -30 3 -7 10 -13 17 -13
7 -1 91 -4 187 -8 96 -4 179 -11 183 -15 12 -10 -41 -64 -83 -85 -19 -10 -37
-21 -40 -24 -13 -17 -77 -59 -95 -63 -31 -5 -24 -32 9 -38 38 -6 34 -17 -19
-55 -98 -70 -135 -99 -135 -107 0 -22 51 -37 138 -40 50 -2 92 -1 92 2 0 3 37
5 83 5 109 -1 123 2 155 36 15 16 31 29 35 29 5 0 42 15 83 34 41 19 74 33 74
31 0 -2 -17 -21 -39 -42 -21 -22 -40 -44 -42 -50 -5 -15 -207 -183 -219 -183
-6 0 -10 -4 -10 -8 0 -10 -112 5 -120 16 -5 7 -70 32 -83 32 -15 0 -6 -38 13
-55 11 -10 20 -25 20 -33 0 -12 -16 -14 -100 -10 -59 3 -105 10 -115 18 -12
10 -15 10 -15 -1 0 -11 -2 -11 -8 -2 -7 12 -83 43 -104 43 -14 0 -1 -49 17
-67 8 -8 15 -22 15 -32 0 -12 7 -17 23 -17 13 1 22 -5 22 -14 0 -16 -12 -17
-105 -6 -77 8 -132 24 -125 36 3 5 -7 5 -22 1 -21 -6 -38 -2 -71 17 -31 18
-46 22 -54 14 -8 -8 -8 -15 2 -27 7 -8 9 -15 4 -15 -4 0 5 -13 21 -30 16 -16
30 -28 33 -26 2 3 14 -6 26 -19 11 -13 28 -26 36 -27 8 -2 19 -12 25 -23 6
-11 17 -20 25 -20 8 0 36 -13 61 -28 26 -15 51 -27 55 -26 5 1 16 0 24 -3 123
-43 534 -70 606 -40 17 7 68 14 115 16 46 1 126 8 178 15 52 7 103 10 113 8
10 -3 18 -1 18 4 0 5 3 9 8 8 17 -3 52 14 52 25 0 7 15 12 35 13 24 1 35 -3
35 -13 0 -19 0 -19 10 -54 10 -36 -6 -163 -26 -202 -8 -15 -14 -29 -14 -32 0
-10 73 -37 128 -48 28 -6 52 -14 52 -17 0 -3 65 -6 145 -6 80 0 145 3 145 6 0
4 18 9 41 13 22 4 68 18 102 31 34 14 68 23 76 20 9 -3 13 -3 9 0 -3 4 -2 19
3 34 9 24 15 28 46 27 30 -1 39 4 53 29 17 31 55 42 55 15 0 -8 16 -22 35 -31
46 -22 184 -44 201 -33 8 5 28 10 44 11 17 1 55 8 85 16 30 9 58 13 62 11 5
-3 8 -1 8 5 0 6 15 18 33 27 17 9 46 25 63 37 l32 21 -30 47 c-31 52 -51 170
-30 183 6 4 8 14 5 23 -5 12 -2 15 10 10 14 -5 16 -3 9 11 -10 19 -5 40 15 60
16 17 8 32 -18 32 -19 0 -23 15 -22 83 0 9 -4 17 -8 17 -4 0 -11 14 -14 32 -9
38 -67 104 -115 128 -37 19 -138 22 -173 6 -13 -6 -11 4 13 50 16 33 35 65 40
72 6 6 8 12 5 12 -3 0 1 13 10 30 8 16 15 32 15 35 0 3 9 21 20 40 11 20 20
42 20 50 0 19 -1 19 56 -11 27 -14 59 -27 72 -29 13 -1 33 -12 46 -24 13 -12
30 -21 37 -19 18 3 108 -22 115 -33 3 -5 14 -9 25 -9 11 0 36 -7 57 -16 20
-10 44 -18 53 -20 9 -2 79 -19 155 -39 76 -19 178 -38 225 -42 91 -6 203 3
194 17 -3 4 2 10 9 13 8 3 17 1 20 -6 3 -9 5 -8 5 1 1 7 -5 14 -11 16 -58 17
-233 86 -271 107 l-49 26 75 8 c45 4 81 12 88 21 9 11 8 15 -2 18 -8 3 -41 15
-74 26 -33 12 -68 22 -77 23 -10 1 -18 5 -18 10 0 4 -4 5 -10 2 -11 -7 -51 12
-62 28 -3 6 -19 12 -35 13 -36 2 -103 30 -103 43 0 6 20 8 48 6 170 -15 238
-14 270 2 37 18 30 37 -19 48 -16 4 -29 11 -29 16 0 6 -4 8 -9 4 -5 -3 -16 1
-24 9 -8 8 -16 14 -18 12 -2 -2 -15 7 -29 20 -23 22 -23 24 -5 25 11 1 28 1
37 0 9 -1 31 5 49 14 l32 17 -39 17 c-22 10 -55 23 -75 30 -20 6 -45 21 -55
33 -17 19 -17 21 -2 15 10 -3 20 -2 23 3 4 6 13 10 22 10 19 0 74 45 66 54 -4
3 -17 6 -29 6 -13 0 -25 4 -28 9 -3 5 -16 7 -29 4 l-22 -6 23 26 c24 25 24 25
3 32 -28 9 -27 16 10 45 17 14 39 41 49 60 l18 35 -62 -1 c-79 -1 -92 3 -69
25 19 17 29 63 18 81 -4 6 -16 5 -35 -5 -37 -19 -60 -19 -60 0 0 19 -8 19 -44
0 -17 -9 -37 -13 -50 -8 -30 10 -40 10 -47 0 -4 -5 -9 -5 -12 0 -4 6 8 24 25
41 16 18 26 32 20 32 -15 0 -66 -23 -72 -32 -11 -15 -125 -35 -148 -27 l-23 9
21 31 c25 34 22 46 -8 30 -11 -6 -22 -7 -26 -4 -3 3 -6 2 -6 -4 0 -5 -22 -20
-49 -33 -37 -17 -59 -21 -88 -16 -108 18 -135 24 -144 33 -6 6 -21 41 -34 78
-33 93 -49 113 -113 142 -32 14 -64 33 -72 42 -15 15 -42 71 -43 88 0 4 -7 13
-15 19 -24 18 -22 66 5 91 18 17 23 33 23 73 0 46 -2 50 -24 50 -23 0 -24 3
-25 68 0 37 -5 82 -11 101 -5 19 -7 38 -3 44 3 6 1 7 -5 3 -7 -4 -12 -2 -12 5
0 19 -68 116 -85 123 -9 3 -13 10 -10 16 5 8 -5 13 -17 9 -2 0 -30 16 -63 36
-71 42 -138 64 -220 71 -33 3 -64 6 -70 8 -5 1 -35 -1 -65 -5z m-96 -1029 c14
-5 26 -15 26 -21 0 -7 -3 -10 -6 -6 -3 3 -23 -4 -43 -17 -20 -12 -46 -25 -57
-28 l-22 -6 20 34 c16 27 41 51 55 54 1 0 13 -4 27 -10z m1040 -262 c34 -8 36
-39 5 -84 -39 -58 -55 -69 -64 -47 -5 10 -7 26 -6 36 1 9 -5 20 -13 23 -21 8
-20 30 2 39 15 6 13 9 -10 21 -16 8 -28 17 -28 19 0 5 81 0 114 -7z m-1250
-141 c-26 -59 -35 -64 -80 -47 -26 10 -26 11 -9 30 10 11 24 20 31 20 7 0 14
3 16 8 4 9 62 51 66 48 1 -2 -9 -28 -24 -59z"/>
</g>
</svg>
