<?xml version="1.0" standalone="no"?>
<!DOCTYPE svg PUBLIC "-//W3C//DTD SVG 20010904//EN"
 "http://www.w3.org/TR/2001/REC-SVG-20010904/DTD/svg10.dtd">
<svg version="1.0" xmlns="http://www.w3.org/2000/svg"
 width="1024.000000pt" height="1024.000000pt" viewBox="0 0 1024.000000 1024.000000"
 preserveAspectRatio="xMidYMid meet">
<metadata>
Created by potrace 1.14, written by Peter Selinger 2001-2017
</metadata>
<g transform="translate(0.000000,1024.000000) scale(0.100000,-0.100000)"
fill="#000000" stroke="none">
<path d="M4235 9968 c-16 -6 -42 -20 -57 -30 -16 -11 -28 -15 -28 -11 0 12
-66 43 -91 43 -37 0 -91 -33 -111 -67 -14 -24 -27 -33 -46 -34 -15 0 -36 -4
-47 -8 -13 -5 -30 0 -53 16 -19 12 -49 23 -66 23 -38 0 -92 -32 -101 -59 -3
-12 -13 -21 -21 -21 -8 0 -33 -9 -56 -21 -26 -13 -51 -19 -68 -15 -41 8 -96
-11 -122 -42 -20 -24 -29 -27 -71 -24 -40 3 -55 -2 -82 -22 -19 -14 -36 -34
-39 -43 -5 -15 -18 -18 -70 -18 -58 0 -68 -3 -96 -30 -17 -16 -33 -39 -36 -51
-3 -13 -22 -29 -45 -39 -21 -10 -44 -24 -50 -32 -6 -7 -25 -13 -41 -13 -16 0
-39 -5 -51 -11 -24 -12 -93 -83 -107 -110 -5 -9 -22 -19 -38 -22 -41 -8 -89
-51 -102 -91 -9 -27 -18 -35 -44 -40 -61 -12 -124 -83 -113 -126 3 -13 -5 -20
-34 -29 -57 -17 -105 -70 -124 -136 -15 -52 -19 -56 -67 -77 -90 -38 -137
-152 -91 -218 14 -20 15 -24 2 -28 -32 -11 -79 -70 -79 -100 0 -22 -6 -32 -19
-37 -11 -3 -34 -22 -50 -41 -34 -38 -41 -87 -17 -119 12 -16 11 -21 -6 -39
-24 -25 -38 -59 -38 -90 0 -14 -10 -28 -25 -36 -61 -33 -85 -133 -46 -195 17
-27 17 -33 4 -59 -9 -18 -13 -43 -9 -64 4 -26 -1 -43 -19 -70 -29 -42 -32 -90
-10 -133 12 -21 13 -34 5 -48 -5 -11 -10 -36 -10 -55 0 -20 -9 -53 -20 -73
-34 -64 -20 -129 36 -170 25 -19 26 -22 16 -53 -17 -48 -15 -80 8 -118 l20
-33 -20 -39 c-38 -75 -14 -184 48 -209 27 -12 28 -14 24 -72 -4 -55 -2 -63 26
-98 24 -29 28 -41 20 -55 -17 -31 -17 -107 0 -142 14 -31 79 -84 102 -84 13 0
12 -10 -5 -40 -8 -14 -14 -48 -15 -75 0 -63 35 -123 90 -154 31 -17 39 -28 44
-63 8 -50 72 -118 111 -118 14 0 25 -4 25 -9 0 -4 10 -21 22 -36 16 -20 21
-42 22 -84 1 -42 7 -64 24 -89 31 -43 93 -74 140 -70 36 3 38 1 57 -47 23 -58
81 -103 135 -107 30 -3 39 -10 62 -49 22 -38 34 -48 72 -59 24 -7 49 -9 55 -6
5 4 17 -9 26 -28 20 -42 77 -73 108 -59 18 8 24 5 37 -21 25 -50 76 -78 137
-75 46 2 55 -1 72 -23 30 -37 73 -53 111 -39 28 9 32 8 40 -14 18 -47 95 -78
159 -64 21 5 43 3 55 -3 12 -7 36 -14 55 -17 l34 -6 -49 -70 c-26 -38 -71
-109 -98 -156 -29 -50 -90 -129 -141 -185 -155 -168 -137 -154 -195 -154 -90
0 -268 -54 -403 -121 -95 -48 -223 -134 -317 -213 -81 -68 -87 -71 -136 -71
-82 0 -88 10 -81 135 3 58 11 121 17 140 55 173 73 350 46 463 -21 89 -73 194
-143 285 -59 78 -157 169 -211 196 -18 9 -37 27 -41 39 -5 12 -14 130 -20 262
-7 132 -16 283 -22 335 -5 52 -12 122 -15 155 -8 86 -41 246 -60 290 -51 122
-135 181 -253 176 -92 -3 -168 -79 -191 -193 -9 -48 -7 -85 14 -250 14 -106
30 -247 35 -313 6 -66 14 -145 17 -175 l5 -55 -59 125 c-71 150 -145 299 -180
360 -102 178 -228 321 -324 365 -165 77 -349 -30 -348 -202 1 -76 53 -171 185
-333 82 -100 150 -194 227 -315 61 -95 158 -265 158 -278 0 -3 -19 3 -43 13
-124 57 -289 -23 -327 -158 -13 -48 -13 -145 1 -213 l11 -55 -55 -56 c-78 -80
-111 -167 -105 -275 5 -89 28 -150 86 -226 51 -68 151 -142 237 -174 64 -25
75 -33 109 -83 34 -48 100 -113 160 -153 15 -11 20 -34 27 -133 23 -328 178
-657 420 -889 127 -122 328 -265 474 -337 125 -62 292 -108 397 -108 23 0 61
-13 100 -34 159 -87 361 -117 517 -78 45 12 105 34 134 50 l52 28 78 -71 c163
-146 373 -272 570 -341 53 -18 77 -32 77 -43 0 -9 9 -30 19 -47 18 -29 47 -46
102 -58 14 -3 31 -17 37 -31 14 -29 91 -69 116 -59 10 4 25 -5 42 -25 18 -22
34 -31 56 -31 l30 0 -17 -28 c-100 -157 -233 -308 -308 -351 -99 -56 -153 -66
-352 -65 -135 1 -214 6 -315 23 -417 68 -503 68 -580 -3 -14 -13 -47 -29 -74
-35 -108 -26 -193 -98 -250 -212 -25 -49 -37 -64 -45 -56 -6 6 -11 7 -11 2 0
-5 -6 0 -14 11 -13 17 -15 17 -21 2 -4 -9 -13 -14 -21 -11 -8 3 -14 0 -14 -6
0 -6 7 -11 16 -11 8 0 12 -5 9 -11 -4 -6 -13 -8 -21 -5 -8 3 -17 -1 -20 -9 -8
-19 -24 -19 -24 0 0 8 5 15 12 15 6 0 2 9 -11 21 -12 12 -25 18 -29 14 -3 -3
0 -10 7 -15 9 -5 11 -14 6 -26 -8 -18 -8 -18 -12 -1 -5 18 -33 24 -33 7 0 -5
-7 -7 -15 -4 -8 4 -15 1 -15 -5 0 -6 -10 -11 -21 -11 -16 0 -20 -5 -16 -20 3
-11 1 -23 -4 -26 -5 -3 -9 2 -9 10 0 20 -19 21 -27 1 -5 -14 -8 -14 -30 0 -17
12 -28 13 -37 6 -7 -6 -16 -8 -19 -4 -4 3 -9 -1 -13 -10 -3 -9 -12 -13 -21
-10 -12 5 -14 1 -8 -15 4 -13 2 -22 -4 -22 -6 0 -11 5 -11 10 0 6 -6 10 -13
10 -7 0 -21 11 -31 25 -16 21 -21 23 -34 13 -8 -7 -16 -11 -18 -8 -1 3 -6 2
-10 -2 -4 -4 1 -10 10 -14 20 -8 21 -24 1 -24 -18 0 -20 -17 -2 -23 6 -2 9 -7
6 -11 -4 -4 -14 0 -22 9 -17 17 -42 21 -32 5 8 -13 -1 -13 -28 1 -21 12 -21
12 -3 -15 10 -15 16 -30 13 -32 -6 -6 -47 32 -47 45 0 6 -4 11 -10 11 -5 0
-10 -9 -10 -19 0 -11 -6 -22 -12 -25 -10 -5 -10 -7 0 -12 6 -3 12 -12 12 -20
0 -8 7 -14 15 -14 8 0 15 5 15 10 0 14 22 8 38 -10 10 -11 15 -12 18 -3 3 7
12 9 20 6 7 -3 11 -9 8 -14 -3 -5 2 -12 10 -15 9 -3 13 -10 10 -15 -3 -5 1
-12 10 -15 8 -3 12 -12 9 -20 -5 -13 2 -16 25 -13 4 1 6 5 4 10 -1 5 5 9 13 9
8 0 15 4 15 10 0 5 7 7 15 4 17 -7 20 -24 4 -24 -6 0 -18 -7 -27 -16 -15 -15
-14 -16 8 -9 14 4 27 12 28 16 2 5 10 9 17 9 7 0 16 6 18 13 4 9 7 9 15 -1 6
-10 15 -10 36 -2 38 14 40 14 54 -20 8 -17 20 -30 28 -30 16 0 19 16 4 25 -17
10 -11 25 9 25 12 0 18 -7 17 -17 -1 -12 5 -17 16 -15 12 2 16 -2 12 -13 -3
-8 -2 -15 4 -15 6 0 12 4 14 9 5 13 48 24 48 12 0 -6 7 -11 15 -11 8 0 15 5
15 10 0 6 5 10 10 10 6 0 10 -5 10 -10 0 -18 38 -53 49 -46 5 4 7 14 4 24 -6
15 -5 15 10 3 15 -12 21 -9 18 12 0 4 8 7 19 7 11 0 20 -7 20 -15 0 -8 -7 -15
-15 -15 -8 0 -15 -4 -15 -10 0 -5 7 -10 15 -10 8 0 15 5 15 10 0 6 7 10 15 10
8 0 15 4 15 8 0 5 15 17 34 27 31 17 35 17 50 2 9 -8 16 -20 16 -25 0 -6 7
-13 16 -16 13 -5 15 -2 11 14 -3 11 -1 23 4 26 5 3 9 -2 9 -10 0 -9 7 -16 15
-16 8 0 15 -4 15 -10 0 -12 32 -50 42 -50 5 0 8 7 8 15 0 8 7 15 16 15 9 0 14
6 12 12 -7 21 14 37 29 22 18 -17 16 -31 -4 -38 -13 -5 -14 -9 -4 -19 10 -9
17 -6 36 16 24 27 45 35 45 18 0 -5 -7 -14 -15 -21 -15 -13 -12 -30 7 -30 5 0
8 7 4 15 -3 9 0 15 9 15 8 0 15 7 15 15 0 8 5 15 10 15 6 0 10 -7 10 -16 0
-10 6 -13 18 -10 17 6 84 -46 89 -69 3 -14 33 -19 33 -6 0 6 7 11 15 11 8 0
15 -7 15 -15 0 -21 20 -19 21 3 0 11 2 12 6 4 4 -10 8 -10 19 -1 11 9 14 8 14
-5 0 -9 5 -16 10 -16 6 0 10 9 10 20 0 18 8 24 28 18 4 -1 6 -8 4 -15 -2 -7 4
-13 13 -13 10 0 15 7 13 18 -2 11 3 16 15 14 9 -2 17 1 17 6 0 12 50 10 69 -2
8 -5 16 -4 22 5 7 11 12 12 28 2 17 -11 22 -10 29 3 8 14 10 14 25 0 20 -20
27 -20 27 0 0 11 6 14 20 9 12 -4 20 -2 20 5 0 7 7 9 16 6 9 -4 23 -1 30 5 17
14 63 3 81 -19 12 -16 13 -15 19 4 4 16 11 20 26 16 18 -4 18 -6 4 -14 -18
-10 -22 -28 -5 -28 6 0 18 7 27 16 14 15 16 15 24 -6 8 -21 35 -23 31 -1 -2 6
8 10 22 9 14 -1 25 -8 25 -15 0 -19 27 -16 35 5 6 16 7 16 16 0 12 -22 29 -23
29 -3 0 17 29 9 47 -14 11 -14 13 -13 19 6 4 13 11 20 20 16 8 -3 14 1 14 10
0 8 -10 18 -22 22 -15 4 -18 8 -10 12 16 6 82 -37 82 -54 0 -7 5 -13 11 -13 7
0 18 -8 25 -18 12 -16 13 -15 14 8 0 18 3 21 9 11 5 -7 14 -10 20 -7 6 4 9 12
6 17 -4 5 1 9 9 9 9 0 16 -7 16 -15 0 -8 7 -15 15 -15 18 0 19 12 3 28 -9 9
-9 15 0 24 9 9 12 8 12 -5 0 -9 7 -17 16 -17 11 0 14 5 10 16 -5 12 -2 15 9
10 9 -3 18 1 21 9 8 20 20 19 44 -5 22 -22 26 -41 9 -38 -6 2 -14 -3 -17 -11
-3 -10 1 -13 17 -8 16 4 21 1 21 -15 0 -10 5 -16 10 -13 6 4 8 11 5 16 -4 5 1
9 9 9 20 0 57 31 50 42 -3 4 2 8 10 8 9 0 16 -7 16 -15 0 -8 6 -15 14 -15 8 0
16 -7 20 -15 3 -8 10 -15 17 -15 6 0 9 7 5 15 -3 9 0 15 9 15 8 0 15 -7 15
-15 0 -8 5 -15 11 -15 6 0 8 8 5 18 -4 13 -1 19 9 19 8 0 15 -6 15 -14 0 -7 3
-13 6 -13 10 0 34 28 34 39 0 6 5 11 11 11 5 0 8 -4 5 -8 -3 -5 5 -20 17 -33
12 -13 21 -25 20 -26 -10 -11 0 -14 10 -4 10 10 9 14 -5 22 -19 11 -25 49 -8
49 6 0 10 -7 10 -15 0 -8 7 -15 15 -15 8 0 15 5 15 11 0 8 5 8 15 -1 12 -10
18 -10 30 0 10 9 15 9 15 1 0 -6 7 -11 15 -11 8 0 15 -8 15 -19 0 -16 8 -18
70 -16 50 1 73 -2 82 -12 7 -9 21 -12 35 -8 13 3 23 1 23 -5 0 -5 5 -10 11
-10 6 0 9 7 6 15 -5 11 2 14 31 12 20 -1 36 -6 34 -12 -2 -5 -10 -9 -18 -7 -8
2 -14 -2 -14 -9 0 -7 9 -9 22 -6 14 4 26 0 34 -11 12 -16 13 -15 14 5 0 16 5
20 20 16 11 -3 20 0 20 6 0 5 7 8 15 5 8 -4 15 -2 15 2 0 5 16 10 35 11 19 2
35 -2 35 -7 0 -17 28 -11 33 7 3 15 6 13 14 -7 6 -14 19 -32 29 -40 16 -14 17
-13 11 3 -6 15 -3 17 12 12 16 -5 18 -2 14 16 -5 17 -3 21 9 16 9 -3 19 -2 24
2 5 5 17 0 27 -11 9 -10 12 -18 6 -18 -8 0 -8 -5 1 -15 9 -10 9 -15 1 -15 -6
0 -11 -7 -11 -15 0 -25 14 -17 29 16 10 22 16 28 24 20 14 -14 30 -14 22 -1
-3 6 -1 10 4 10 6 0 11 7 11 15 0 8 7 15 16 15 15 0 15 -2 0 -24 -9 -14 -12
-27 -7 -31 5 -3 12 -1 16 5 3 5 3 10 0 10 -3 0 0 6 7 14 16 17 29 11 21 -9 -3
-9 1 -15 10 -15 8 0 17 5 19 12 6 17 28 0 28 -23 0 -10 5 -19 11 -19 5 0 7 4
4 10 -3 5 -1 10 4 10 6 0 11 5 11 10 0 6 -7 10 -15 10 -8 0 -15 7 -15 15 0 20
20 19 36 -2 12 -17 13 -17 19 -1 4 9 13 14 21 11 8 -3 14 -1 14 4 0 14 44 10
53 -5 4 -6 15 -12 22 -12 8 0 15 -4 15 -10 0 -5 7 -10 15 -10 8 0 15 5 15 10
0 6 -5 10 -11 10 -6 0 -18 8 -27 17 -16 15 -15 16 13 9 17 -4 32 -12 33 -17 2
-5 12 -9 23 -9 10 0 18 -5 17 -11 -2 -6 3 -14 10 -16 6 -3 12 2 12 11 0 9 7
16 15 16 8 0 15 5 15 10 0 6 5 10 10 10 7 0 7 -6 1 -19 -8 -14 -7 -20 4 -25 9
-3 15 0 15 9 0 20 19 19 42 -2 17 -15 18 -15 18 0 0 10 7 17 15 17 8 0 15 4
15 10 0 5 7 7 15 4 14 -6 13 -8 -2 -20 -17 -13 -17 -14 5 -20 12 -3 22 -10 22
-15 0 -15 22 -10 36 9 13 16 13 16 14 -2 0 -11 5 -16 14 -13 7 3 36 -6 64 -19
79 -38 168 -57 239 -51 l62 5 29 -63 c35 -74 68 -93 120 -68 52 25 79 85 85
183 1 30 6 61 10 68 5 6 5 17 2 22 -12 19 6 10 29 -15 l22 -24 18 21 c17 20
19 20 28 4 9 -16 12 -16 31 5 12 13 21 27 19 31 -1 5 5 8 13 8 13 0 14 -4 4
-22 -7 -13 -17 -26 -23 -30 -6 -4 -8 -10 -4 -13 7 -8 49 26 43 35 -2 3 5 11
16 18 10 7 19 8 19 3 0 -6 -4 -13 -10 -16 -14 -9 -12 -25 3 -25 13 0 43 40 39
53 -1 4 5 7 13 7 17 0 20 -16 5 -25 -15 -9 -12 -25 5 -25 8 0 15 5 15 11 0 6
7 17 15 25 17 18 65 9 65 -12 0 -19 19 -18 26 1 8 19 34 19 34 0 0 -22 21 -18
27 5 7 25 28 26 38 3 6 -17 7 -17 20 0 10 13 14 15 18 5 3 -10 9 -10 23 -2 23
12 63 -4 56 -24 -2 -6 3 -12 12 -12 9 0 16 7 16 15 0 8 5 15 10 15 6 0 10 -7
10 -15 0 -8 5 -15 10 -15 6 0 10 7 10 16 0 10 6 14 15 10 9 -3 15 0 15 9 0 17
16 20 25 5 10 -16 28 -12 21 5 -7 18 20 21 27 3 4 -10 7 -10 15 0 5 7 16 10
25 6 12 -4 17 -1 17 10 0 10 6 13 15 10 10 -4 15 0 15 10 0 13 6 15 26 10 20
-5 25 -3 22 7 -5 14 -17 15 -55 3 -14 -4 -23 -2 -23 5 0 6 6 11 14 11 8 0 17
8 20 17 5 12 10 13 18 5 6 -6 16 -8 23 -5 7 2 16 -5 20 -16 3 -12 13 -21 22
-21 9 0 13 6 9 15 -3 9 0 15 9 15 8 0 15 5 15 10 0 14 27 12 33 -2 4 -10 7
-10 18 -1 11 11 10 13 -4 13 -9 0 -17 6 -17 14 0 15 36 11 46 -5 7 -12 24 -11
24 1 0 6 -7 10 -15 10 -8 0 -15 5 -15 10 0 6 7 10 15 10 8 0 15 5 15 10 0 6 9
10 20 10 11 0 20 4 20 9 0 13 44 0 53 -16 4 -7 12 -13 17 -13 15 0 12 28 -2
33 -8 3 -6 6 5 6 9 1 17 -3 17 -9 0 -5 7 -10 15 -10 8 0 15 5 15 12 0 6 7 4
18 -5 23 -21 36 -22 29 -3 -9 23 5 27 25 9 16 -14 21 -15 28 -3 7 12 11 12 26
-1 13 -11 18 -11 21 -1 3 6 11 12 18 12 8 0 19 8 24 18 9 14 12 15 20 3 5 -7
13 -11 19 -7 5 3 12 -3 15 -14 3 -11 10 -20 16 -20 15 0 14 27 -1 33 -7 3 -3
6 10 6 13 1 22 -5 22 -14 0 -8 5 -15 11 -15 6 0 9 11 7 24 -1 13 3 31 11 40 8
9 11 20 7 24 -4 4 -14 -2 -22 -12 -14 -19 -14 -19 -14 3 0 17 -4 22 -16 17
-10 -4 -24 2 -35 15 -10 11 -23 18 -28 14 -6 -3 -11 1 -11 9 0 22 -17 20 -36
-3 -16 -18 -60 -18 -48 0 3 5 -4 9 -15 9 -12 0 -21 7 -21 15 0 17 -16 20 -25
6 -8 -14 -45 -9 -45 6 0 16 -12 17 -27 2 -7 -7 -15 -6 -26 5 -9 9 -21 16 -27
16 -6 0 -20 9 -32 20 -19 18 -23 18 -38 5 -9 -8 -22 -15 -28 -15 -7 0 -12 -5
-12 -11 0 -5 -5 -7 -10 -4 -6 4 -18 1 -27 -7 -14 -11 -15 -10 -9 10 8 25 4 27
-23 11 -15 -10 -22 -8 -38 8 -10 10 -17 25 -15 31 5 16 -15 15 -25 0 -11 -18
-43 -19 -43 -2 0 8 -6 14 -13 14 -7 0 -23 9 -35 20 -12 11 -27 20 -34 20 -8
-1 -7 -5 5 -14 23 -18 22 -32 -3 -32 -11 0 -20 6 -20 13 0 16 -12 17 -27 2 -7
-7 -17 -8 -25 -3 -16 10 -78 13 -78 4 0 -8 -44 -5 -59 5 -6 3 -11 1 -11 -5 0
-6 -5 -8 -12 -3 -7 4 -22 7 -32 8 -11 0 -21 6 -24 14 -3 8 0 11 7 7 6 -4 11
-2 11 4 0 7 -6 10 -12 7 -7 -2 -30 10 -50 28 -70 59 -82 61 -483 52 -232 -6
-382 15 -459 63 -62 38 -148 141 -210 253 -33 60 -136 287 -136 300 0 5 11 6
25 3 28 -7 71 16 80 43 4 14 20 9 113 -37 154 -76 261 -84 278 -18 5 23 7 22
127 -39 298 -154 609 -239 762 -211 113 22 112 131 -4 239 -55 51 -51 55 30
31 142 -43 325 -52 387 -20 62 32 79 93 43 151 -17 29 -61 74 -109 112 -23 18
-22 18 56 15 94 -5 143 13 162 58 25 60 -31 142 -184 267 l-40 32 26 10 c31
12 78 66 78 92 0 16 12 12 93 -32 309 -170 569 -279 746 -315 112 -22 252 -15
339 17 169 62 324 276 354 487 20 144 -21 245 -136 328 l-60 44 78 0 c71 0 85
3 150 38 94 49 171 128 218 222 57 112 73 185 73 325 -1 103 -4 127 -23 170
-40 87 -108 143 -210 175 l-56 18 69 35 c67 34 142 101 178 158 56 92 81 287
53 418 -31 145 -113 273 -202 312 -22 10 -66 21 -97 25 l-56 7 49 46 c31 30
60 71 81 115 30 65 33 77 33 175 0 93 -4 117 -31 193 -59 169 -156 300 -265
358 -57 31 -71 34 -148 35 -47 0 -99 -3 -116 -7 l-32 -7 44 65 c45 67 74 145
74 199 0 160 -112 351 -277 472 -203 150 -385 180 -538 88 -32 -19 -59 -35
-60 -35 -1 0 2 21 7 48 18 95 -20 181 -122 274 -108 100 -243 163 -403 188
-89 15 -262 9 -279 -8 -19 -19 -28 -14 -28 17 0 15 -10 44 -23 62 l-23 34 32
33 c51 53 56 111 12 159 -16 17 -18 25 -9 41 13 25 14 72 2 91 -6 10 -4 25 6
44 18 35 11 84 -16 119 -17 21 -17 26 -5 43 19 26 17 64 -6 109 -17 35 -18 41
-5 67 26 50 19 104 -19 146 -38 43 -49 91 -46 195 2 74 -14 115 -53 141 -18
12 -23 22 -20 41 9 43 -4 69 -64 131 -55 57 -58 63 -58 111 -1 60 -34 113 -84
134 -20 8 -31 20 -31 32 0 29 -26 73 -54 92 -19 12 -26 25 -26 49 0 45 -40 99
-89 122 -34 15 -41 23 -41 47 0 17 -10 39 -25 53 -23 24 -38 29 -81 26 -13 -1
-24 7 -32 24 -13 27 -67 65 -94 65 -13 0 -18 8 -18 25 0 68 -54 110 -134 104
l-44 -4 -5 43 c-8 71 -85 131 -146 115 -29 -7 -69 27 -77 65 -12 62 -98 106
-163 84 -28 -10 -31 -8 -50 23 -26 45 -61 66 -118 73 -33 3 -55 0 -79 -13 -34
-18 -34 -18 -57 7 -27 29 -89 52 -119 45 -13 -4 -33 3 -54 19 -18 14 -51 28
-74 31 -22 3 -40 9 -40 14 0 4 -16 17 -36 29 -42 27 -101 23 -144 -9 l-28 -20
-22 24 c-44 46 -120 53 -172 15 -34 -25 -40 -25 -63 0 -29 33 -80 44 -115 26
-29 -14 -33 -13 -67 10 -42 28 -90 31 -139 8 -31 -15 -37 -15 -52 -2 -19 17
-77 38 -101 37 -9 0 -29 -5 -46 -11z"/>
<path d="M2450 970 c0 -5 5 -10 11 -10 5 0 7 5 4 10 -3 6 -8 10 -11 10 -2 0
-4 -4 -4 -10z"/>
<path d="M2345 960 c3 -5 8 -10 11 -10 2 0 4 5 4 10 0 6 -5 10 -11 10 -5 0 -7
-4 -4 -10z"/>
<path d="M2290 951 c0 -5 6 -11 13 -14 8 -3 14 1 14 9 0 8 -6 14 -14 14 -7 0
-13 -4 -13 -9z"/>
<path d="M2405 950 c3 -5 10 -10 16 -10 5 0 9 5 9 10 0 6 -7 10 -16 10 -8 0
-12 -4 -9 -10z"/>
<path d="M2475 950 c-3 -5 1 -10 9 -10 9 0 16 5 16 10 0 6 -4 10 -9 10 -6 0
-13 -4 -16 -10z"/>
<path d="M7370 945 c0 -8 4 -15 10 -15 5 0 7 7 4 15 -4 8 -8 15 -10 15 -2 0
-4 -7 -4 -15z"/>
<path d="M2240 940 c0 -5 5 -10 10 -10 6 0 10 5 10 10 0 6 -4 10 -10 10 -5 0
-10 -4 -10 -10z"/>
<path d="M2372 941 c4 -13 18 -16 19 -4 0 4 -5 9 -11 12 -7 2 -11 -2 -8 -8z"/>
<path d="M7290 940 c0 -5 7 -10 16 -10 8 0 12 5 9 10 -3 6 -10 10 -16 10 -5 0
-9 -4 -9 -10z"/>
<path d="M7415 940 c-3 -5 1 -10 10 -10 9 0 13 5 10 10 -3 6 -8 10 -10 10 -2
0 -7 -4 -10 -10z"/>
<path d="M2170 930 c0 -5 5 -10 11 -10 5 0 7 5 4 10 -3 6 -8 10 -11 10 -2 0
-4 -4 -4 -10z"/>
<path d="M2210 930 c0 -5 5 -10 10 -10 6 0 10 -5 10 -11 0 -7 -10 -9 -25 -6
-25 4 -25 4 -9 -15 14 -14 19 -16 25 -6 5 7 14 13 20 13 7 0 14 6 17 13 2 6
-3 12 -12 12 -9 0 -16 5 -16 10 0 6 -4 10 -10 10 -5 0 -10 -4 -10 -10z"/>
<path d="M2270 931 c0 -5 5 -13 10 -16 6 -3 10 -2 10 4 0 5 -4 13 -10 16 -5 3
-10 2 -10 -4z"/>
<path d="M7330 930 c0 -5 7 -10 15 -10 8 0 15 5 15 10 0 6 -7 10 -15 10 -8 0
-15 -4 -15 -10z"/>
<path d="M7475 930 c3 -5 10 -10 16 -10 5 0 9 5 9 10 0 6 -7 10 -16 10 -8 0
-12 -4 -9 -10z"/>
<path d="M7590 930 c0 -5 7 -10 15 -10 8 0 15 5 15 10 0 6 -7 10 -15 10 -8 0
-15 -4 -15 -10z"/>
<path d="M2075 920 c3 -5 8 -10 11 -10 2 0 4 5 4 10 0 6 -5 10 -11 10 -5 0 -7
-4 -4 -10z"/>
<path d="M7680 922 c0 -4 9 -13 20 -20 23 -14 26 -7 6 14 -16 15 -26 18 -26 6z"/>
<path d="M2130 910 c0 -5 5 -10 10 -10 6 0 10 5 10 10 0 6 -4 10 -10 10 -5 0
-10 -4 -10 -10z"/>
<path d="M7632 911 c4 -13 18 -16 19 -4 0 4 -5 9 -11 12 -7 2 -11 -2 -8 -8z"/>
<path d="M2035 900 c-3 -5 -1 -10 4 -10 6 0 11 5 11 10 0 6 -2 10 -4 10 -3 0
-8 -4 -11 -10z"/>
<path d="M7744 894 c3 -9 6 -18 6 -20 0 -3 4 -3 10 1 11 7 2 35 -12 35 -6 0
-7 -7 -4 -16z"/>
<path d="M7790 899 c0 -5 5 -7 10 -4 6 3 10 8 10 11 0 2 -4 4 -10 4 -5 0 -10
-5 -10 -11z"/>
<path d="M1970 889 c0 -5 5 -7 10 -4 6 3 10 8 10 11 0 2 -4 4 -10 4 -5 0 -10
-5 -10 -11z"/>
<path d="M7880 890 c0 -5 5 -10 10 -10 6 0 10 5 10 10 0 6 -4 10 -10 10 -5 0
-10 -4 -10 -10z"/>
<path d="M2105 879 c-10 -15 3 -25 16 -12 7 7 7 13 1 17 -6 3 -14 1 -17 -5z"/>
<path d="M2140 882 c0 -11 37 -32 44 -25 12 12 6 25 -9 19 -8 -3 -15 -1 -15 4
0 6 -4 10 -10 10 -5 0 -10 -3 -10 -8z"/>
<path d="M7810 880 c0 -5 5 -10 10 -10 6 0 10 5 10 10 0 6 -4 10 -10 10 -5 0
-10 -4 -10 -10z"/>
<path d="M1930 870 c0 -5 5 -10 10 -10 6 0 10 5 10 10 0 6 -4 10 -10 10 -5 0
-10 -4 -10 -10z"/>
<path d="M2000 870 c0 -5 7 -10 16 -10 8 0 12 5 9 10 -3 6 -10 10 -16 10 -5 0
-9 -4 -9 -10z"/>
<path d="M7710 870 c0 -5 5 -10 10 -10 6 0 10 5 10 10 0 6 -4 10 -10 10 -5 0
-10 -4 -10 -10z"/>
<path d="M7915 870 c-3 -5 1 -10 9 -10 9 0 16 5 16 10 0 6 -4 10 -9 10 -6 0
-13 -4 -16 -10z"/>
<path d="M7980 870 c0 -5 5 -10 10 -10 6 0 10 5 10 10 0 6 -4 10 -10 10 -5 0
-10 -4 -10 -10z"/>
<path d="M2070 860 c0 -5 5 -10 10 -10 6 0 10 5 10 10 0 6 -4 10 -10 10 -5 0
-10 -4 -10 -10z"/>
<path d="M7780 860 c0 -5 5 -10 10 -10 6 0 10 5 10 10 0 6 -4 10 -10 10 -5 0
-10 -4 -10 -10z"/>
<path d="M8050 860 c0 -5 5 -10 10 -10 6 0 10 5 10 10 0 6 -4 10 -10 10 -5 0
-10 -4 -10 -10z"/>
<path d="M1870 850 c0 -5 5 -10 10 -10 6 0 10 5 10 10 0 6 -4 10 -10 10 -5 0
-10 -4 -10 -10z"/>
<path d="M7945 851 c-6 -11 9 -23 19 -14 9 9 7 23 -3 23 -6 0 -12 -4 -16 -9z"/>
<path d="M8015 850 c-8 -13 -1 -24 14 -19 6 3 7 10 2 18 -6 10 -10 10 -16 1z"/>
<path d="M2035 840 c4 -6 11 -8 16 -5 14 9 11 15 -7 15 -8 0 -12 -5 -9 -10z"/>
<path d="M8087 836 c-6 -14 0 -26 13 -26 3 0 6 9 7 20 2 23 -12 27 -20 6z"/>
<path d="M8130 840 c0 -5 5 -10 10 -10 6 0 10 5 10 10 0 6 -4 10 -10 10 -5 0
-10 -4 -10 -10z"/>
<path d="M8170 830 c0 -5 5 -10 11 -10 5 0 7 5 4 10 -3 6 -8 10 -11 10 -2 0
-4 -4 -4 -10z"/>
<path d="M1830 820 c-8 -5 -11 -12 -8 -16 4 -3 14 1 23 10 18 17 9 21 -15 6z"/>
<path d="M1905 820 c4 -6 11 -8 16 -5 14 9 11 15 -7 15 -8 0 -12 -5 -9 -10z"/>
<path d="M8200 820 c0 -5 5 -10 10 -10 6 0 10 5 10 10 0 6 -4 10 -10 10 -5 0
-10 -4 -10 -10z"/>
<path d="M1785 810 c4 -6 11 -8 16 -5 14 9 11 15 -7 15 -8 0 -12 -5 -9 -10z"/>
<path d="M1870 810 c0 -5 5 -10 10 -10 6 0 10 5 10 10 0 6 -4 10 -10 10 -5 0
-10 -4 -10 -10z"/>
<path d="M8124 805 c-9 -22 1 -29 15 -11 8 10 9 16 1 21 -5 3 -13 -1 -16 -10z"/>
<path d="M8265 811 c-3 -5 -1 -12 4 -15 5 -3 11 1 15 9 6 16 -9 21 -19 6z"/>
<path d="M1745 800 c-3 -5 -1 -10 4 -10 6 0 11 5 11 10 0 6 -2 10 -4 10 -3 0
-8 -4 -11 -10z"/>
<path d="M8310 800 c0 -5 5 -10 10 -10 6 0 10 5 10 10 0 6 -4 10 -10 10 -5 0
-10 -4 -10 -10z"/>
<path d="M8230 790 c0 -5 5 -10 10 -10 6 0 10 5 10 10 0 6 -4 10 -10 10 -5 0
-10 -4 -10 -10z"/>
<path d="M1695 780 c-3 -5 1 -10 9 -10 9 0 16 5 16 10 0 6 -4 10 -9 10 -6 0
-13 -4 -16 -10z"/>
<path d="M1780 765 c0 -8 5 -15 10 -15 6 0 10 7 10 15 0 8 -4 15 -10 15 -5 0
-10 -7 -10 -15z"/>
<path d="M8255 770 c-3 -5 1 -10 9 -10 9 0 16 5 16 10 0 6 -4 10 -9 10 -6 0
-13 -4 -16 -10z"/>
<path d="M8330 769 c0 -5 5 -7 10 -4 6 3 10 8 10 11 0 2 -4 4 -10 4 -5 0 -10
-5 -10 -11z"/>
<path d="M8425 770 c3 -5 8 -10 11 -10 2 0 4 5 4 10 0 6 -5 10 -11 10 -5 0 -7
-4 -4 -10z"/>
<path d="M1750 754 c0 -8 5 -12 10 -9 6 4 8 11 5 16 -9 14 -15 11 -15 -7z"/>
<path d="M8290 760 c0 -5 4 -10 9 -10 6 0 13 5 16 10 3 6 -1 10 -9 10 -9 0
-16 -4 -16 -10z"/>
<path d="M1720 745 c0 -8 4 -15 10 -15 5 0 7 7 4 15 -4 8 -8 15 -10 15 -2 0
-4 -7 -4 -15z"/>
<path d="M8370 750 c0 -5 5 -10 10 -10 6 0 10 5 10 10 0 6 -4 10 -10 10 -5 0
-10 -4 -10 -10z"/>
<path d="M8450 750 c0 -5 5 -10 10 -10 6 0 10 5 10 10 0 6 -4 10 -10 10 -5 0
-10 -4 -10 -10z"/>
<path d="M1660 739 c0 -5 5 -7 10 -4 6 3 10 8 10 11 0 2 -4 4 -10 4 -5 0 -10
-5 -10 -11z"/>
<path d="M8410 740 c0 -5 5 -10 10 -10 6 0 10 5 10 10 0 6 -4 10 -10 10 -5 0
-10 -4 -10 -10z"/>
<path d="M1770 731 c0 -5 4 -12 10 -16 5 -3 7 -12 3 -20 -3 -8 0 -15 5 -15 14
0 23 15 14 24 -4 4 -7 13 -7 19 0 5 -6 12 -12 15 -7 2 -13 -1 -13 -7z"/>
<path d="M8340 730 c0 -5 5 -10 10 -10 6 0 10 5 10 10 0 6 -4 10 -10 10 -5 0
-10 -4 -10 -10z"/>
<path d="M8384 714 c1 -9 10 -21 20 -26 16 -9 16 -7 7 10 -15 27 -30 36 -27
16z"/>
<path d="M1740 710 c0 -5 5 -10 10 -10 6 0 10 5 10 10 0 6 -4 10 -10 10 -5 0
-10 -4 -10 -10z"/>
<path d="M8320 700 c0 -5 5 -10 10 -10 6 0 10 5 10 10 0 6 -4 10 -10 10 -5 0
-10 -4 -10 -10z"/>
<path d="M8350 700 c0 -5 5 -10 10 -10 6 0 10 5 10 10 0 6 -4 10 -10 10 -5 0
-10 -4 -10 -10z"/>
<path d="M1710 686 c0 -9 5 -16 10 -16 6 0 10 4 10 9 0 6 -4 13 -10 16 -5 3
-10 -1 -10 -9z"/>
<path d="M1850 690 c0 -5 5 -10 10 -10 6 0 10 5 10 10 0 6 -4 10 -10 10 -5 0
-10 -4 -10 -10z"/>
<path d="M1660 676 c0 -9 5 -16 10 -16 6 0 10 4 10 9 0 6 -4 13 -10 16 -5 3
-10 -1 -10 -9z"/>
<path d="M8450 680 c0 -5 5 -10 10 -10 6 0 10 5 10 10 0 6 -4 10 -10 10 -5 0
-10 -4 -10 -10z"/>
<path d="M1820 670 c0 -5 5 -10 10 -10 6 0 10 5 10 10 0 6 -4 10 -10 10 -5 0
-10 -4 -10 -10z"/>
<path d="M1905 670 c3 -5 10 -10 16 -10 5 0 9 5 9 10 0 6 -7 10 -16 10 -8 0
-12 -4 -9 -10z"/>
<path d="M8360 675 c0 -3 9 -15 20 -27 11 -13 20 -16 20 -9 0 7 -6 19 -14 27
-15 14 -26 18 -26 9z"/>
<path d="M1745 660 c3 -5 10 -10 16 -10 5 0 9 5 9 10 0 6 -7 10 -16 10 -8 0
-12 -4 -9 -10z"/>
<path d="M1870 660 c0 -5 5 -10 10 -10 6 0 10 5 10 10 0 6 -4 10 -10 10 -5 0
-10 -4 -10 -10z"/>
<path d="M8320 655 c0 -8 5 -15 10 -15 6 0 10 7 10 15 0 8 -4 15 -10 15 -5 0
-10 -7 -10 -15z"/>
<path d="M8180 645 c0 -8 5 -15 10 -15 6 0 10 7 10 15 0 8 -4 15 -10 15 -5 0
-10 -7 -10 -15z"/>
<path d="M1710 640 c0 -5 7 -10 15 -10 8 0 15 5 15 10 0 6 -7 10 -15 10 -8 0
-15 -4 -15 -10z"/>
<path d="M1785 640 c3 -5 10 -10 16 -10 5 0 9 5 9 10 0 6 -7 10 -16 10 -8 0
-12 -4 -9 -10z"/>
<path d="M1837 644 c-8 -8 1 -24 14 -24 5 0 9 7 9 15 0 15 -12 20 -23 9z"/>
<path d="M1922 641 c4 -13 18 -16 19 -4 0 4 -5 9 -11 12 -7 2 -11 -2 -8 -8z"/>
<path d="M8410 639 c0 -5 5 -7 10 -4 6 3 10 8 10 11 0 2 -4 4 -10 4 -5 0 -10
-5 -10 -11z"/>
<path d="M1890 630 c0 -5 5 -10 10 -10 6 0 10 5 10 10 0 6 -4 10 -10 10 -5 0
-10 -4 -10 -10z"/>
<path d="M7880 631 c0 -6 5 -13 10 -16 6 -3 10 1 10 9 0 9 -4 16 -10 16 -5 0
-10 -4 -10 -9z"/>
<path d="M1760 620 c0 -5 5 -10 10 -10 6 0 10 5 10 10 0 6 -4 10 -10 10 -5 0
-10 -4 -10 -10z"/>
<path d="M7980 615 c0 -8 5 -15 10 -15 6 0 10 7 10 15 0 8 -4 15 -10 15 -5 0
-10 -7 -10 -15z"/>
<path d="M8080 614 c0 -17 22 -14 28 4 2 7 -3 12 -12 12 -9 0 -16 -7 -16 -16z"/>
<path d="M8145 621 c-6 -11 9 -23 19 -14 9 9 7 23 -3 23 -6 0 -12 -4 -16 -9z"/>
<path d="M8210 620 c0 -5 5 -10 10 -10 6 0 10 5 10 10 0 6 -4 10 -10 10 -5 0
-10 -4 -10 -10z"/>
<path d="M8270 620 c0 -5 7 -10 15 -10 8 0 15 5 15 10 0 6 -7 10 -15 10 -8 0
-15 -4 -15 -10z"/>
<path d="M8345 620 c3 -5 8 -10 11 -10 2 0 4 5 4 10 0 6 -5 10 -11 10 -5 0 -7
-4 -4 -10z"/>
<path d="M1800 610 c0 -5 7 -10 16 -10 8 0 12 5 9 10 -3 6 -10 10 -16 10 -5 0
-9 -4 -9 -10z"/>
<path d="M2140 605 c0 -8 7 -15 15 -15 8 0 15 7 15 15 0 8 -7 15 -15 15 -8 0
-15 -7 -15 -15z"/>
<path d="M7840 610 c0 -5 7 -10 15 -10 8 0 15 5 15 10 0 6 -7 10 -15 10 -8 0
-15 -4 -15 -10z"/>
<path d="M1870 600 c0 -5 5 -10 11 -10 5 0 7 5 4 10 -3 6 -8 10 -11 10 -2 0
-4 -4 -4 -10z"/>
<path d="M2090 604 c0 -10 31 -36 37 -31 3 3 -2 13 -10 22 -16 15 -27 19 -27
9z"/>
<path d="M7920 600 c0 -5 7 -10 15 -10 8 0 15 5 15 10 0 6 -7 10 -15 10 -8 0
-15 -4 -15 -10z"/>
<path d="M8025 600 c3 -5 8 -10 11 -10 2 0 4 5 4 10 0 6 -5 10 -11 10 -5 0 -7
-4 -4 -10z"/>
<path d="M1940 590 c0 -5 5 -10 10 -10 6 0 10 5 10 10 0 6 -4 10 -10 10 -5 0
-10 -4 -10 -10z"/>
<path d="M7880 590 c0 -5 5 -10 10 -10 6 0 10 5 10 10 0 6 -4 10 -10 10 -5 0
-10 -4 -10 -10z"/>
<path d="M2060 580 c0 -5 5 -10 10 -10 6 0 10 5 10 10 0 6 -4 10 -10 10 -5 0
-10 -4 -10 -10z"/>
<path d="M2175 579 c-10 -15 3 -25 16 -12 7 7 7 13 1 17 -6 3 -14 1 -17 -5z"/>
<path d="M2597 584 c-8 -8 1 -24 14 -24 5 0 9 7 9 15 0 15 -12 20 -23 9z"/>
<path d="M2000 565 c0 -8 5 -15 10 -15 6 0 10 7 10 15 0 8 -4 15 -10 15 -5 0
-10 -7 -10 -15z"/>
<path d="M2247 574 c-8 -8 1 -24 14 -24 5 0 9 7 9 15 0 15 -12 20 -23 9z"/>
<path d="M2320 575 c0 -3 9 -16 20 -27 19 -21 21 -21 37 -5 9 9 13 20 9 24 -5
5 -11 2 -13 -4 -6 -18 -23 -16 -23 2 0 8 -7 15 -15 15 -8 0 -15 -2 -15 -5z"/>
<path d="M7850 570 c0 -5 5 -10 10 -10 6 0 10 5 10 10 0 6 -4 10 -10 10 -5 0
-10 -4 -10 -10z"/>
<path d="M2065 550 c4 -6 11 -8 16 -5 14 9 11 15 -7 15 -8 0 -12 -5 -9 -10z"/>
<path d="M2130 550 c0 -5 5 -10 10 -10 6 0 10 5 10 10 0 6 -4 10 -10 10 -5 0
-10 -4 -10 -10z"/>
<path d="M2572 549 c2 -6 8 -10 13 -10 5 0 11 4 13 10 2 6 -4 11 -13 11 -9 0
-15 -5 -13 -11z"/>
<path d="M7800 550 c0 -5 5 -10 10 -10 6 0 10 5 10 10 0 6 -4 10 -10 10 -5 0
-10 -4 -10 -10z"/>
<path d="M2205 540 c3 -5 10 -10 16 -10 5 0 9 5 9 10 0 6 -7 10 -16 10 -8 0
-12 -4 -9 -10z"/>
<path d="M2630 540 c0 -5 5 -10 10 -10 6 0 10 5 10 10 0 6 -4 10 -10 10 -5 0
-10 -4 -10 -10z"/>
<path d="M2687 544 c-8 -8 1 -24 14 -24 5 0 9 7 9 15 0 15 -12 20 -23 9z"/>
<path d="M7760 540 c0 -5 5 -10 10 -10 6 0 10 5 10 10 0 6 -4 10 -10 10 -5 0
-10 -4 -10 -10z"/>
<path d="M2280 529 c0 -5 5 -7 10 -4 6 3 10 8 10 11 0 2 -4 4 -10 4 -5 0 -10
-5 -10 -11z"/>
<path d="M2390 530 c0 -5 5 -10 10 -10 6 0 10 5 10 10 0 6 -4 10 -10 10 -5 0
-10 -4 -10 -10z"/>
<path d="M2460 525 c0 -8 2 -15 4 -15 2 0 12 -3 21 -6 15 -6 15 -4 4 15 -16
25 -29 27 -29 6z"/>
<path d="M2523 517 c4 -14 26 -16 30 -3 1 5 -6 10 -16 12 -10 1 -16 -3 -14 -9z"/>
<path d="M7716 521 c-4 -5 -2 -12 3 -15 5 -4 12 -2 15 3 4 5 2 12 -3 15 -5 4
-12 2 -15 -3z"/>
<path d="M2600 510 c0 -5 5 -10 10 -10 6 0 10 5 10 10 0 6 -4 10 -10 10 -5 0
-10 -4 -10 -10z"/>
<path d="M2650 510 c0 -5 5 -10 10 -10 6 0 10 5 10 10 0 6 -4 10 -10 10 -5 0
-10 -4 -10 -10z"/>
<path d="M2910 510 c0 -5 7 -10 15 -10 8 0 15 5 15 10 0 6 -7 10 -15 10 -8 0
-15 -4 -15 -10z"/>
<path d="M2952 508 c3 -7 15 -14 27 -14 28 -2 21 20 -8 24 -16 3 -22 -1 -19
-10z"/>
<path d="M3577 513 c-14 -13 -6 -23 18 -23 14 0 25 -5 25 -11 0 -5 5 -7 11 -3
8 4 4 13 -12 25 -26 20 -32 22 -42 12z"/>
<path d="M2722 499 c2 -6 8 -10 13 -10 5 0 11 4 13 10 2 6 -4 11 -13 11 -9 0
-15 -5 -13 -11z"/>
<path d="M4250 500 c0 -5 7 -10 15 -10 8 0 15 5 15 10 0 6 -7 10 -15 10 -8 0
-15 -4 -15 -10z"/>
<path d="M7645 499 c-4 -6 -5 -13 -2 -16 7 -7 27 6 27 18 0 12 -17 12 -25 -2z"/>
<path d="M2780 490 c0 -5 7 -10 15 -10 8 0 15 5 15 10 0 6 -7 10 -15 10 -8 0
-15 -4 -15 -10z"/>
<path d="M2857 494 c-8 -8 1 -24 14 -24 5 0 9 7 9 15 0 15 -12 20 -23 9z"/>
<path d="M3530 484 c0 -9 5 -14 12 -12 18 6 21 28 4 28 -9 0 -16 -7 -16 -16z"/>
<path d="M2930 476 c0 -9 7 -16 16 -16 9 0 14 5 12 12 -6 18 -28 21 -28 4z"/>
<path d="M4012 479 c2 -7 10 -15 17 -17 8 -3 12 1 9 9 -2 7 -10 15 -17 17 -8
3 -12 -1 -9 -9z"/>
<path d="M4225 481 c-7 -12 12 -24 25 -16 11 7 4 25 -10 25 -5 0 -11 -4 -15
-9z"/>
<path d="M7615 480 c3 -5 8 -10 11 -10 2 0 4 5 4 10 0 6 -5 10 -11 10 -5 0 -7
-4 -4 -10z"/>
<path d="M2990 470 c0 -5 7 -10 15 -10 8 0 15 5 15 10 0 6 -7 10 -15 10 -8 0
-15 -4 -15 -10z"/>
<path d="M3280 465 c0 -9 5 -15 11 -13 6 2 11 8 11 13 0 5 -5 11 -11 13 -6 2
-11 -4 -11 -13z"/>
<path d="M3326 471 c-4 -5 -2 -12 3 -15 5 -4 12 -2 15 3 4 5 2 12 -3 15 -5 4
-12 2 -15 -3z"/>
<path d="M3436 473 c-11 -11 -6 -23 9 -23 8 0 15 4 15 9 0 13 -16 22 -24 14z"/>
<path d="M3490 471 c0 -6 5 -13 10 -16 6 -3 10 1 10 9 0 9 -4 16 -10 16 -5 0
-10 -4 -10 -9z"/>
<path d="M4402 471 c-13 -8 -6 -41 8 -41 10 0 20 39 11 44 -4 3 -13 1 -19 -3z"/>
<path d="M4715 470 c-4 -6 -3 -16 3 -22 6 -6 12 -6 17 2 4 6 3 16 -3 22 -6 6
-12 6 -17 -2z"/>
<path d="M3370 460 c0 -5 7 -10 15 -10 8 0 15 5 15 10 0 6 -7 10 -15 10 -8 0
-15 -4 -15 -10z"/>
<path d="M3590 455 c0 -8 5 -15 10 -15 6 0 10 7 10 15 0 8 -4 15 -10 15 -5 0
-10 -7 -10 -15z"/>
<path d="M3647 464 c-8 -8 1 -24 14 -24 5 0 9 7 9 15 0 15 -12 20 -23 9z"/>
<path d="M3717 464 c-8 -8 1 -24 14 -24 5 0 9 7 9 15 0 15 -12 20 -23 9z"/>
<path d="M3786 462 c-3 -6 -1 -14 5 -17 15 -10 25 3 12 16 -7 7 -13 7 -17 1z"/>
<path d="M4660 460 c0 -5 5 -10 10 -10 6 0 10 5 10 10 0 6 -4 10 -10 10 -5 0
-10 -4 -10 -10z"/>
<path d="M3535 450 c3 -5 8 -10 11 -10 2 0 4 5 4 10 0 6 -5 10 -11 10 -5 0 -7
-4 -4 -10z"/>
<path d="M3850 450 c0 -5 7 -10 15 -10 8 0 15 5 15 10 0 6 -7 10 -15 10 -8 0
-15 -4 -15 -10z"/>
<path d="M3910 450 c0 -5 7 -10 15 -10 8 0 15 5 15 10 0 6 -7 10 -15 10 -8 0
-15 -4 -15 -10z"/>
<path d="M3980 445 c0 -9 5 -15 11 -13 6 2 11 8 11 13 0 5 -5 11 -11 13 -6 2
-11 -4 -11 -13z"/>
<path d="M4570 450 c0 -5 7 -10 15 -10 8 0 15 5 15 10 0 6 -7 10 -15 10 -8 0
-15 -4 -15 -10z"/>
<path d="M7060 445 c0 -9 5 -15 11 -13 6 2 11 8 11 13 0 5 -5 11 -11 13 -6 2
-11 -4 -11 -13z"/>
<path d="M7460 445 c0 -8 5 -15 10 -15 6 0 10 7 10 15 0 8 -4 15 -10 15 -5 0
-10 -7 -10 -15z"/>
<path d="M7545 450 c3 -5 10 -10 16 -10 5 0 9 5 9 10 0 6 -7 10 -16 10 -8 0
-12 -4 -9 -10z"/>
<path d="M4050 440 c0 -5 5 -10 10 -10 6 0 10 5 10 10 0 6 -4 10 -10 10 -5 0
-10 -4 -10 -10z"/>
<path d="M4130 434 c0 -17 22 -14 28 4 2 7 -3 12 -12 12 -9 0 -16 -7 -16 -16z"/>
<path d="M4210 435 c0 -8 5 -15 10 -15 6 0 10 7 10 15 0 8 -4 15 -10 15 -5 0
-10 -7 -10 -15z"/>
<path d="M4690 435 c0 -8 5 -15 10 -15 6 0 10 7 10 15 0 8 -4 15 -10 15 -5 0
-10 -7 -10 -15z"/>
<path d="M7300 434 c0 -17 22 -14 28 4 2 7 -3 12 -12 12 -9 0 -16 -7 -16 -16z"/>
<path d="M4280 430 c0 -5 5 -10 10 -10 6 0 10 5 10 10 0 6 -4 10 -10 10 -5 0
-10 -4 -10 -10z"/>
<path d="M4355 431 c-6 -11 9 -23 19 -14 9 9 7 23 -3 23 -6 0 -12 -4 -16 -9z"/>
<path d="M4495 431 c-3 -5 -1 -12 5 -16 5 -3 10 1 10 9 0 18 -6 21 -15 7z"/>
<path d="M7146 431 c-3 -5 1 -14 9 -21 12 -10 15 -10 15 3 0 19 -16 31 -24 18z"/>
<path d="M7200 424 c0 -17 22 -14 28 4 2 7 -3 12 -12 12 -9 0 -16 -7 -16 -16z"/>
<path d="M7255 430 c3 -5 10 -10 16 -10 5 0 9 5 9 10 0 6 -7 10 -16 10 -8 0
-12 -4 -9 -10z"/>
<path d="M4430 420 c0 -5 4 -10 9 -10 6 0 13 5 16 10 3 6 -1 10 -9 10 -9 0
-16 -4 -16 -10z"/>
<path d="M4540 420 c0 -5 7 -10 16 -10 8 0 12 5 9 10 -3 6 -10 10 -16 10 -5 0
-9 -4 -9 -10z"/>
<path d="M4595 420 c3 -5 11 -10 16 -10 6 0 7 5 4 10 -3 6 -11 10 -16 10 -6 0
-7 -4 -4 -10z"/>
<path d="M4736 422 c-3 -6 -1 -14 5 -17 15 -10 25 3 12 16 -7 7 -13 7 -17 1z"/>
<path d="M4830 420 c0 -5 9 -10 21 -10 11 0 17 5 14 10 -3 6 -13 10 -21 10 -8
0 -14 -4 -14 -10z"/>
<path d="M5200 415 c0 -8 5 -15 10 -15 6 0 10 7 10 15 0 8 -4 15 -10 15 -5 0
-10 -7 -10 -15z"/>
<path d="M7090 415 c0 -8 5 -15 10 -15 6 0 10 7 10 15 0 8 -4 15 -10 15 -5 0
-10 -7 -10 -15z"/>
<path d="M4645 410 c4 -6 11 -8 16 -5 14 9 11 15 -7 15 -8 0 -12 -5 -9 -10z"/>
<path d="M4795 410 c3 -5 10 -10 16 -10 5 0 9 5 9 10 0 6 -7 10 -16 10 -8 0
-12 -4 -9 -10z"/>
<path d="M4890 410 c0 -5 5 -10 10 -10 6 0 10 5 10 10 0 6 -4 10 -10 10 -5 0
-10 -4 -10 -10z"/>
<path d="M5362 408 c6 -18 28 -21 28 -4 0 9 -7 16 -16 16 -9 0 -14 -5 -12 -12z"/>
<path d="M5710 406 c0 -9 5 -16 10 -16 6 0 10 4 10 9 0 6 -4 13 -10 16 -5 3
-10 -1 -10 -9z"/>
<path d="M6986 411 c-4 -7 -5 -15 -2 -18 9 -9 19 4 14 18 -4 11 -6 11 -12 0z"/>
<path d="M7030 410 c0 -5 7 -10 16 -10 8 0 12 5 9 10 -3 6 -10 10 -16 10 -5 0
-9 -4 -9 -10z"/>
<path d="M5160 395 c0 -8 5 -15 10 -15 6 0 10 7 10 15 0 8 -4 15 -10 15 -5 0
-10 -7 -10 -15z"/>
<path d="M5241 405 c0 -12 24 -45 33 -45 3 0 6 8 6 17 0 9 -3 13 -7 10 -3 -4
-12 1 -19 11 -7 9 -13 13 -13 7z"/>
<path d="M6745 400 c-3 -5 1 -10 9 -10 9 0 16 5 16 10 0 6 -4 10 -9 10 -6 0
-13 -4 -16 -10z"/>
<path d="M6812 399 c2 -6 8 -10 13 -10 5 0 11 4 13 10 2 6 -4 11 -13 11 -9 0
-15 -5 -13 -11z"/>
<path d="M6920 395 c0 -8 5 -15 10 -15 6 0 10 7 10 15 0 8 -4 15 -10 15 -5 0
-10 -7 -10 -15z"/>
<path d="M4860 390 c0 -5 5 -10 10 -10 6 0 10 5 10 10 0 6 -4 10 -10 10 -5 0
-10 -4 -10 -10z"/>
<path d="M4930 390 c0 -5 5 -10 10 -10 6 0 10 5 10 10 0 6 -4 10 -10 10 -5 0
-10 -4 -10 -10z"/>
<path d="M4985 391 c-3 -5 -1 -12 5 -16 5 -3 10 1 10 9 0 18 -6 21 -15 7z"/>
<path d="M5660 390 c0 -5 5 -10 10 -10 6 0 10 5 10 10 0 6 -4 10 -10 10 -5 0
-10 -4 -10 -10z"/>
<path d="M5740 394 c0 -17 28 -49 36 -41 4 4 -2 17 -14 30 -12 12 -22 17 -22
11z"/>
<path d="M5045 381 c-3 -5 -1 -12 5 -16 5 -3 10 1 10 9 0 18 -6 21 -15 7z"/>
<path d="M5130 380 c0 -5 5 -10 11 -10 5 0 7 5 4 10 -3 6 -8 10 -11 10 -2 0
-4 -4 -4 -10z"/>
<path d="M5956 383 c-11 -11 -6 -23 9 -23 8 0 15 4 15 9 0 13 -16 22 -24 14z"/>
<path d="M6850 380 c0 -5 5 -10 10 -10 6 0 10 5 10 10 0 6 -4 10 -10 10 -5 0
-10 -4 -10 -10z"/>
<path d="M5200 370 c0 -5 5 -10 10 -10 6 0 10 5 10 10 0 6 -4 10 -10 10 -5 0
-10 -4 -10 -10z"/>
<path d="M5330 370 c0 -5 7 -10 15 -10 8 0 15 5 15 10 0 6 -7 10 -15 10 -8 0
-15 -4 -15 -10z"/>
<path d="M5466 372 c-3 -6 -1 -14 5 -17 15 -10 25 3 12 16 -7 7 -13 7 -17 1z"/>
<path d="M5535 370 c-3 -5 1 -10 10 -10 9 0 13 5 10 10 -3 6 -8 10 -10 10 -2
0 -7 -4 -10 -10z"/>
<path d="M5696 371 c-4 -7 -5 -15 -2 -18 9 -9 19 4 14 18 -4 11 -6 11 -12 0z"/>
<path d="M5892 369 c2 -7 10 -15 17 -17 8 -3 12 1 9 9 -2 7 -10 15 -17 17 -8
3 -12 -1 -9 -9z"/>
<path d="M6012 371 c4 -13 18 -16 19 -4 0 4 -5 9 -11 12 -7 2 -11 -2 -8 -8z"/>
<path d="M6780 370 c0 -5 5 -10 10 -10 6 0 10 5 10 10 0 6 -4 10 -10 10 -5 0
-10 -4 -10 -10z"/>
<path d="M5820 360 c0 -5 7 -10 15 -10 8 0 15 5 15 10 0 6 -7 10 -15 10 -8 0
-15 -4 -15 -10z"/>
</g>
</svg>
